Coordinates
version=1
nRows=22
nColumns=33
inDegrees=yes

Units are S.I. units (second, meters, Newtons, ...)
Angles are in degrees.

endheader
time	ground_thorax_rot_x	ground_thorax_rot_y	ground_thorax_rot_z	ground_thorax_tx	ground_thorax_ty	ground_thorax_tz	clav_prot_r	clav_elev_r	scapula_abduction_r	scapula_elevation_r	scapula_upward_rot_r	scapula_winging_r	shoulder_elv_r	plane_of_elev_r	axial_rot_r	elbow_flexion_r	pro_sup_r	wrist_flex_r	wrist_dev_r	clav_prot_l	clav_elev_l	scapula_abduction_l	scapula_elevation_l	scapula_upward_rot_l	scapula_winging_l	shoulder_elv_l	plane_of_elev_l	axial_rot_l	elbow_flexion_l	pro_sup_l	wrist_flex_l	wrist_dev_l	
8.8500	-37.201295	-12.412922	19.124856	-119.094268	779.954384	7.603836	3.071362	-45.000000	39.947529	-45.000000	-20.771218	3143.712008	-1736.799435	29.555825	67.373396	1089.528624	14.921638	17.042811	13.110911	18.983507	38.991210	-41.739836	-44.231673	-42.310287	-1362.412502	2588.140558	26.348353	-29.146121	2168.872760	16.174306	9.916431	-18.278404	
8.8600	-37.090602	-11.862663	18.539358	-115.586641	778.498617	8.058380	2.924866	-45.000000	40.584569	-45.000000	-19.124395	3143.569512	-1737.079849	29.338966	67.823796	1089.370138	15.882662	17.015588	13.064062	19.038869	38.867296	-42.083517	-43.696475	-41.450259	-1362.405859	2587.892377	26.213725	-29.501739	2168.770365	16.845985	9.970506	-18.266503	
8.8700	-36.933610	-11.084100	17.719769	-112.283355	777.359766	8.696432	2.757768	-45.000000	41.410987	-45.000000	-16.978914	3143.309940	-1737.330907	29.122774	68.252998	1089.211563	16.906910	16.994368	12.993952	19.056034	38.680334	-42.508560	-42.987043	-40.292424	-1362.286205	2587.623973	26.029036	-30.023904	2168.724737	17.487563	10.000696	-18.242736	
8.8800	-36.646733	-10.036398	16.717069	-109.421877	776.814264	9.924637	2.606055	-45.000000	42.394024	-45.000000	-14.357810	3142.930159	-1737.519729	28.923921	68.668480	1089.044086	17.933068	16.968312	12.910812	18.958607	38.392466	-42.993082	-42.101312	-38.873752	-1362.085569	2587.295003	25.782535	-30.957538	2168.872346	18.205811	9.897459	-18.117690	
8.8900	-36.264420	-8.888471	15.728173	-106.950288	776.776263	11.630438	2.420259	-45.000000	43.294527	-45.000000	-11.749450	3142.560781	-1737.641839	28.767350	69.001351	1088.866895	18.860492	16.930153	12.823532	18.832393	38.026941	-43.492605	-41.156813	-37.433370	-1361.889542	2586.956271	25.484669	-32.201095	2169.183881	19.024444	9.676077	-17.915679	
8.9000	-35.812857	-7.727527	14.807752	-104.823832	777.162155	13.718770	2.251627	-45.000000	44.100781	-45.000000	-9.270017	3142.215875	-1737.708302	28.654567	69.270283	1088.684752	19.669792	16.887766	12.736996	18.627639	37.605798	-43.969721	-40.211672	-36.053028	-1361.698131	2586.587827	25.187814	-33.698939	2169.620309	19.974006	9.329846	-17.634009	
8.9100	-35.410626	-6.811774	14.144069	-102.766965	777.611013	15.661107	2.069794	-45.000000	44.600770	-45.000000	-7.464260	3142.031749	-1737.749207	28.604515	69.400808	1088.505615	20.295742	16.845968	12.662906	18.456982	37.209171	-44.363330	-39.411888	-34.973582	-1361.579930	2586.279359	24.927708	-35.114517	2170.011033	20.948253	8.973065	-17.371690	
8.9200	-35.074133	-6.121508	13.664056	-100.769578	778.089461	17.402731	1.905888	-45.000000	44.880459	-45.000000	-6.169580	3141.985537	-1737.768652	28.590907	69.416542	1088.333031	20.750936	16.816972	12.616028	18.258867	36.848528	-44.648076	-38.741986	-34.085164	-1361.516248	2586.011319	24.710834	-36.430183	2170.333112	21.929839	8.618324	-17.124977	
8.9300	-34.906187	-5.706365	13.316503	-98.636905	778.350659	18.514494	1.700585	-45.000000	44.950169	-45.000000	-5.375072	3142.092821	-1737.801725	28.592894	69.288329	1088.180691	21.035046	16.812438	12.609186	18.122955	36.595890	-44.833082	-38.230000	-33.346897	-1361.511351	2585.840729	24.533256	-37.354427	2170.451937	22.803890	8.378126	-16.982849	
8.9400	-34.898035	-5.446366	12.946662	-96.460479	778.510742	19.069829	1.504215	-45.000000	45.000000	-45.000000	-4.703706	3142.252407	-1737.858070	28.584926	69.058232	1088.049060	21.134053	16.841245	12.664597	17.990056	36.439280	-44.943939	-37.816051	-32.591127	-1361.510150	2585.718138	24.401794	-37.933502	2170.391810	23.542553	8.243626	-16.920527	
8.9500	-35.044432	-5.353011	12.589662	-94.347518	778.688857	19.060385	1.324723	-45.000000	45.000000	-45.000000	-4.243078	3142.463105	-1737.947558	28.576665	68.742376	1087.953870	20.995215	16.887549	12.773611	17.884532	36.386189	-44.990782	-37.498824	-31.881315	-1361.521138	2585.664588	24.307946	-38.183487	2170.186973	24.107576	8.207189	-16.931374	
8.9600	-35.268787	-5.263611	12.153394	-92.578841	779.215295	18.880719	1.140743	-45.000000	45.000000	-45.000000	-3.734580	3142.692124	-1738.048215	28.542123	68.381985	1087.880672	20.386533	16.909256	12.981142	17.767231	36.385448	-45.000000	-37.215995	-31.084114	-1361.553087	2585.628676	24.204961	-38.345035	2169.986501	24.603193	8.183796	-16.935900	
8.9700	-35.562167	-5.229405	11.640142	-91.325084	780.120102	18.137845	0.970019	-45.000000	45.000000	-45.000000	-3.269439	3142.945689	-1738.233067	28.434296	68.306667	1087.971264	19.652147	16.815555	13.068705	17.671965	36.397376	-45.000000	-36.923948	-30.256407	-1361.547975	2585.580713	24.125895	-38.420901	2169.780378	25.045195	8.176245	-16.934514	
8.9800	-35.876905	-5.277351	11.123811	-90.492482	781.231272	16.945083	0.853933	-45.000000	45.000000	-45.000000	-2.938112	3143.210903	-1738.488203	28.276116	68.511453	1088.215535	18.963696	16.595007	13.012543	17.595199	36.387288	-45.000000	-36.625590	-29.497205	-1361.503513	2585.510375	24.079611	-38.420177	2169.575078	25.428037	8.168140	-16.923154	
8.9900	-36.147496	-5.419942	10.677793	-89.948261	782.309510	15.449632	0.817435	-45.000000	45.000000	-45.000000	-2.806453	3143.467994	-1738.797809	28.094490	68.990333	1088.604489	18.740804	16.278600	12.730524	17.534034	36.330789	-45.000000	-36.308986	-28.890356	-1361.429346	2585.430650	24.063661	-38.359580	2169.382197	25.725003	8.161875	-16.903991	
9.0000	-36.344364	-5.574918	10.307478	-89.425539	783.137724	14.135236	0.807308	-45.000000	45.000000	-45.000000	-2.752632	3143.709004	-1739.077656	27.932328	69.441530	1088.993552	18.837978	15.958251	12.400885	17.481454	36.248501	-45.000000	-36.009466	-28.387925	-1361.377432	2585.358604	24.043650	-38.234532	2169.214562	25.941298	8.157938	-16.888530	
9.0100	-36.381156	-5.688792	10.059950	-88.662179	783.359027	13.357696	0.801701	-45.000000	45.000000	-45.000000	-2.733644	3143.902059	-1739.286426	27.829460	69.774983	1089.301285	19.483722	15.703484	12.003819	17.449646	36.109657	-45.000000	-35.723335	-27.999235	-1361.350383	2585.281052	24.032101	-38.133624	2169.084104	26.068425	8.167655	-16.881802	
9.0200	-36.364808	-5.778642	9.901784	-87.771410	783.333515	13.047781	0.822284	-45.000000	45.000000	-45.000000	-2.741494	3144.050957	-1739.422844	27.799685	69.846686	1089.500382	20.307599	15.562114	11.704364	17.404513	35.973533	-45.000000	-35.498536	-27.728722	-1361.350415	2585.210256	24.044281	-37.992140	2168.971547	26.109287	8.177485	-16.872190	
9.0300	-36.322222	-5.821586	9.783783	-86.796077	783.160746	13.120035	0.823740	-45.000000	45.000000	-45.000000	-2.704098	3144.169507	-1739.492448	27.815316	69.690767	1089.595520	21.131978	15.535082	11.517495	17.367407	35.857844	-45.000000	-35.328345	-27.507008	-1361.379524	2585.152617	24.066675	-37.825609	2168.875731	26.079604	8.196905	-16.864857	
9.0400	-36.375998	-5.848939	9.606648	-86.034823	783.309543	13.122254	0.799732	-45.000000	45.000000	-45.000000	-2.589574	3144.299782	-1739.553904	27.812099	69.454839	1089.671816	21.563650	15.560745	11.481508	17.326768	35.808070	-45.000000	-35.220163	-27.246849	-1361.416982	2585.096741	24.095602	-37.583477	2168.769629	26.014900	8.222520	-16.853396	
9.0500	-36.445010	-5.851603	9.395077	-85.404161	783.531856	13.049298	0.737819	-45.000000	45.000000	-45.000000	-2.411874	3144.431558	-1739.620294	27.782011	69.314630	1089.758845	21.787735	15.578220	11.452205	17.310357	35.773140	-45.000000	-35.125881	-26.949259	-1361.452767	2585.037502	24.125018	-37.363871	2168.668374	25.931924	8.259373	-16.844676	
9.0600	-36.595449	-5.910994	9.155470	-85.102428	784.113967	12.592119	0.701142	-45.000000	45.000000	-45.000000	-2.279550	3144.580688	-1739.733100	27.707745	69.371172	1089.936364	21.826301	15.555756	11.404941	17.289681	35.771529	-45.000000	-35.051321	-26.672877	-1361.468746	2584.976171	24.159794	-37.110985	2168.554017	25.830607	8.291379	-16.825802	
